<?xml version="1.0" encoding="UTF-8" standalone="no"?>
<svg xmlns="http://www.w3.org/2000/svg" id="svg1" width="292.578" height="240.348" viewBox="0 0 292.578 423.038"><path id="ff4655ff" fill="#ff4655" d="M-109.564.514c3.17-1.89 5.19 1.93 6.9 3.94 110.03 137.65 220.19 275.2 330.21 412.85 2.26 1.96.55 6.15-2.5 5.7-52.68.06-105.37.02-158.05.02-4.22.05-8.26-2.05-10.85-5.34-54.66-68.29-109.29-136.61-163.95-204.91a14.53 14.53 0 0 1-3.37-9.92c0-65.98.02-131.97-.02-197.95.03-1.56-.03-3.58 1.63-4.39m508.88-.32c2.25-.85 4.73 1.23 4.4 3.59.08 66.01-.01 132.02.04 198.03.15 3.74-.67 7.61-3.1 10.55-16.61 20.78-33.24 41.55-49.85 62.32-2.77 3.6-7.3 5.59-11.83 5.36-52.33-.05-104.67.03-157-.04-3.09.48-4.85-3.69-2.57-5.7 72.57-90.79 145.2-181.55 217.81-272.32.55-.78 1.25-1.38 2.1-1.79" opacity="1"/></svg>
